<svg xmlns="http://www.w3.org/2000/svg" width="1600" height="900" viewBox="0 0 1600 900">
<defs><linearGradient id="a" x1="0" x2="1"><stop stop-color="#00a99d"/><stop offset="1" stop-color="#6338ee"/></linearGradient><marker id="m" markerWidth="10" markerHeight="10" refX="9" refY="3" orient="auto"><path d="M0,0 L0,6 L9,3 z" fill="#64747b"/></marker></defs><rect width="1600" height="900" fill="#080b0d"/><rect width="1600" height="9" fill="url(#a)"/>
<text x="80" y="95" fill="#fff" font-family="Arial" font-size="46" font-weight="700">PRAHARI reference architecture</text><text x="80" y="137" fill="#99a6ab" font-family="Arial" font-size="22">One secure intelligence layer across language, relational data, graphs and audit</text>
<g font-family="Arial"><rect x="80" y="210" width="260" height="505" rx="25" fill="#101719" stroke="#00a99d" stroke-width="3"/><text x="210" y="258" text-anchor="middle" fill="#3ed3c3" font-size="20" font-weight="700">OFFICER WORKSPACE</text><rect x="115" y="310" width="190" height="82" rx="14" fill="#172326"/><text x="210" y="360" text-anchor="middle" fill="#fff" font-size="22">Bilingual Chat</text><rect x="115" y="425" width="190" height="82" rx="14" fill="#172326"/><text x="210" y="475" text-anchor="middle" fill="#fff" font-size="22">Linked Cases</text><rect x="115" y="540" width="190" height="82" rx="14" fill="#172326"/><text x="210" y="590" text-anchor="middle" fill="#fff" font-size="22">Area Dashboard</text>
<rect x="420" y="185" width="650" height="580" rx="25" fill="#0d1417" stroke="#1784d1" stroke-width="3"/><text x="745" y="235" text-anchor="middle" fill="#48a9e8" font-size="20" font-weight="700">TRUSTED FASTAPI INTELLIGENCE LAYER</text><g fill="#172326"><rect x="465" y="285" width="250" height="92" rx="15"/><rect x="775" y="285" width="250" height="92" rx="15"/><rect x="465" y="420" width="250" height="92" rx="15"/><rect x="775" y="420" width="250" height="92" rx="15"/><rect x="465" y="555" width="250" height="92" rx="15"/><rect x="775" y="555" width="250" height="92" rx="15"/></g><g fill="#fff" font-size="21" text-anchor="middle"><text x="590" y="328">JWT + RBAC</text><text x="590" y="355" fill="#91a1a7" font-size="16">jurisdiction scope</text><text x="900" y="328">Intent Validator</text><text x="900" y="355" fill="#91a1a7" font-size="16">allow-listed schema</text><text x="590" y="463">Query Builder</text><text x="590" y="490" fill="#91a1a7" font-size="16">parameterized only</text><text x="900" y="463">Grounding Guard</text><text x="900" y="490" fill="#91a1a7" font-size="16">citation allow-list</text><text x="590" y="598">MO Linker</text><text x="590" y="625" fill="#91a1a7" font-size="16">shared elements</text><text x="900" y="598">Audit Service</text><text x="900" y="625" fill="#91a1a7" font-size="16">hash + signature</text></g>
<rect x="1150" y="185" width="370" height="580" rx="25" fill="#0f141b" stroke="#6338ee" stroke-width="3"/><text x="1335" y="235" text-anchor="middle" fill="#9e82ff" font-size="20" font-weight="700">DATA + AI SERVICES</text><g fill="#172326"><rect x="1195" y="285" width="280" height="82" rx="15"/><rect x="1195" y="395" width="280" height="82" rx="15"/><rect x="1195" y="505" width="280" height="82" rx="15"/><rect x="1195" y="615" width="280" height="82" rx="15"/></g><g fill="#fff" text-anchor="middle" font-size="20"><text x="1335" y="335">PostgreSQL + pgvector</text><text x="1335" y="445">Neo4j Case Graph</text><text x="1335" y="555">Mistral / Sarvam</text><text x="1335" y="665">Catalyst AppSail</text></g></g>
<g stroke="#64747b" stroke-width="4" fill="none" marker-end="url(#m)"><path d="M340 460h75"/><path d="M1070 360h75"/><path d="M1070 460h75"/><path d="M1070 560h75"/></g>
<text x="800" y="830" text-anchor="middle" fill="#bec7ca" font-family="Arial" font-size="20">Prototype: SQLite + structured MO overlap  |  Production target: PostgreSQL, pgvector and Neo4j</text>
</svg>

