<svg xmlns="http://www.w3.org/2000/svg" width="1600" height="900" viewBox="0 0 1600 900"><defs><linearGradient id="b" x1="0" x2="1"><stop stop-color="#00a99d"/><stop offset="1" stop-color="#6338ee"/></linearGradient></defs><rect width="1600" height="900" fill="#080b0d"/><rect width="1600" height="9" fill="url(#b)"/><text x="80" y="95" fill="#fff" font-family="Arial" font-size="46" font-weight="700">Prototype performance — local deterministic mode</text><text x="80" y="138" fill="#9ba7ab" font-family="Arial" font-size="21">50 sequential chat requests after 3 warm-ups · FastAPI TestClient · SQLite · mock provider</text>
<g font-family="Arial"><rect x="80" y="205" width="330" height="170" rx="22" fill="#11191c" stroke="#00a99d"/><text x="115" y="255" fill="#93a1a6" font-size="20">SUCCESS RATE</text><text x="115" y="333" fill="#fff" font-size="68" font-weight="700">100%</text><rect x="445" y="205" width="330" height="170" rx="22" fill="#11191c" stroke="#0788c7"/><text x="480" y="255" fill="#93a1a6" font-size="20">MEAN LATENCY</text><text x="480" y="333" fill="#fff" font-size="68" font-weight="700">7.97 ms</text><rect x="810" y="205" width="330" height="170" rx="22" fill="#11191c" stroke="#315bdc"/><text x="845" y="255" fill="#93a1a6" font-size="20">P50 LATENCY</text><text x="845" y="333" fill="#fff" font-size="68" font-weight="700">7.43 ms</text><rect x="1175" y="205" width="330" height="170" rx="22" fill="#11191c" stroke="#6338ee"/><text x="1210" y="255" fill="#93a1a6" font-size="20">P95 LATENCY</text><text x="1210" y="333" fill="#fff" font-size="68" font-weight="700">11.16 ms</text></g>
<g transform="translate(100 460)" font-family="Arial"><text x="0" y="0" fill="#fff" font-size="25" font-weight="700">Latency distribution (milliseconds)</text><g stroke="#263238" stroke-width="2"><path d="M170 70h1190"/><path d="M170 145h1190"/><path d="M170 220h1190"/></g><g fill="#9ba7ab" font-size="18"><text x="70" y="85">Minimum</text><text x="90" y="160">P50</text><text x="90" y="235">P95</text></g><rect x="170" y="52" width="499" height="36" rx="8" fill="#00a99d"/><rect x="170" y="127" width="590" height="36" rx="8" fill="#087ed1"/><rect x="170" y="202" width="887" height="36" rx="8" fill="#6338ee"/><g fill="#fff" font-size="18" font-weight="700"><text x="685" y="77">6.29</text><text x="776" y="152">7.43</text><text x="1074" y="227">11.16</text></g></g><text x="80" y="820" fill="#d7b04b" font-family="Arial" font-size="19">Benchmark is a local engineering smoke test, not a Catalyst production SLA or real-data accuracy claim.</text></svg>

